<?xml version="1.0" encoding="UTF-8" standalone="no"?>
<!-- Generated by IcoMoon.io -->

<svg
   version="1.1"
   width="512"
   height="512"
   viewBox="0 0 512 512"
   id="svg1209"
   sodipodi:docname="cart.svg"
   inkscape:version="1.1.1 (c3084ef, 2021-09-22)"
   xmlns:inkscape="http://www.inkscape.org/namespaces/inkscape"
   xmlns:sodipodi="http://sodipodi.sourceforge.net/DTD/sodipodi-0.dtd"
   xmlns="http://www.w3.org/2000/svg"
   xmlns:svg="http://www.w3.org/2000/svg">
  <defs
     id="defs1213" />
  <sodipodi:namedview
     id="namedview1211"
     pagecolor="#ffffff"
     bordercolor="#666666"
     borderopacity="1.0"
     inkscape:pageshadow="2"
     inkscape:pageopacity="0.0"
     inkscape:pagecheckerboard="0"
     showgrid="false"
     inkscape:zoom="1.109375"
     inkscape:cx="273.57746"
     inkscape:cy="224.4507"
     inkscape:window-width="1440"
     inkscape:window-height="790"
     inkscape:window-x="0"
     inkscape:window-y="25"
     inkscape:window-maximized="1"
     inkscape:current-layer="svg1209" />
  <title
     id="title1200" />
  <g
     id="icomoon-ignore" />
  <path
     d="M192 464c0 26.51-21.49 48-48 48s-48-21.49-48-48c0-26.51 21.49-48 48-48s48 21.49 48 48z"
     id="path1203"
     style="fill:#1d2840;fill-opacity:1" />
  <path
     d="M512 464c0 26.51-21.49 48-48 48s-48-21.49-48-48c0-26.51 21.49-48 48-48s48 21.49 48 48z"
     id="path1205"
     style="fill:#1d2840;fill-opacity:1" />
  <path
     d="M512 256v-192h-384c0-17.673-14.327-32-32-32h-96v32h64l24.037 206.027c-14.647 11.729-24.037 29.75-24.037 49.973 0 35.348 28.654 64 64 64h384v-32h-384c-17.673 0-32-14.327-32-32 0-0.109 0.007-0.218 0.008-0.328l415.992-63.672z"
     id="path1207"
     style="fill:#1d2840;fill-opacity:1" />
</svg>
